<svg xmlns="http://www.w3.org/2000/svg" xmlns:xlink="http://www.w3.org/1999/xlink" width="256" zoomAndPan="magnify" viewBox="0 0 192 191.999996" height="256" preserveAspectRatio="xMidYMid meet" version="1.0"><defs><g/><clipPath id="fed892b1bf"><path d="M 4 1 L 25 1 L 25 27 L 4 27 Z M 4 1 " clip-rule="nonzero"/></clipPath><clipPath id="027dee9055"><path d="M 0.203125 6.890625 L 22.917969 -1.238281 L 30.417969 19.726562 L 7.707031 27.855469 Z M 0.203125 6.890625 " clip-rule="nonzero"/></clipPath><clipPath id="5ad2e6f77e"><path d="M 0.203125 6.890625 L 22.917969 -1.238281 L 30.417969 19.726562 L 7.707031 27.855469 Z M 0.203125 6.890625 " clip-rule="nonzero"/></clipPath><clipPath id="a20c2e2ed4"><rect x="0" width="147" y="0" height="94"/></clipPath></defs><rect x="-19.2" width="230.4" fill="#ffffff" y="-19.2" height="230.399995" fill-opacity="1"/><rect x="-19.2" width="230.4" fill="#0e0a07" y="-19.2" height="230.399995" fill-opacity="1"/><g transform="matrix(1, 0, 0, 1, 19, 51)"><g clip-path="url(#a20c2e2ed4)"><g clip-path="url(#fed892b1bf)"><g clip-path="url(#027dee9055)"><g clip-path="url(#5ad2e6f77e)"><path fill="#ffffff" d="M 19.332031 4.398438 C 8.542969 8.203125 4.558594 15.304688 7.789062 25.890625 C 7.828125 26.023438 7.640625 26.101562 7.574219 25.976562 C 5.878906 22.75 4.863281 19.613281 4.761719 16.609375 C 4.425781 6.695312 14.878906 1.640625 23.597656 1.695312 C 24.035156 1.699219 24.289062 2.164062 24.0625 2.535156 C 19.765625 9.5 25.285156 22.335938 8.605469 21.886719 C 8.347656 13.960938 11.460938 7.878906 19.332031 4.398438 " fill-opacity="1" fill-rule="evenodd"/></g></g></g><g fill="#ffffff" fill-opacity="1"><g transform="translate(19.236348, 72.66404)"><g><path d="M 0.96875 -46.796875 L 17.984375 -47.6875 C 22.734375 -47.925781 26.640625 -46.898438 29.703125 -44.609375 C 32.765625 -42.316406 34.414062 -38.832031 34.65625 -34.15625 C 34.90625 -29.488281 33.613281 -25.742188 30.78125 -22.921875 C 27.945312 -20.109375 24.191406 -18.582031 19.515625 -18.34375 L 13.125 -18.015625 L 14.015625 -0.734375 L 3.390625 -0.171875 Z M 12.671875 -26.515625 L 15.671875 -26.671875 C 18.035156 -26.785156 19.957031 -27.363281 21.4375 -28.40625 C 22.925781 -29.445312 23.613281 -31.054688 23.5 -33.234375 C 23.382812 -35.460938 22.535156 -37.015625 20.953125 -37.890625 C 19.367188 -38.773438 17.394531 -39.160156 15.03125 -39.046875 L 12.03125 -38.890625 Z M 12.671875 -26.515625 "/></g></g></g><g fill="#ffffff" fill-opacity="1"><g transform="translate(56.879662, 70.708786)"><g><path d="M 0.078125 -23.40625 C -0.265625 -30.144531 1.738281 -35.96875 6.09375 -40.875 C 10.445312 -45.789062 15.863281 -48.414062 22.34375 -48.75 C 28.863281 -49.09375 34.523438 -47.054688 39.328125 -42.640625 C 44.128906 -38.222656 46.703125 -32.625 47.046875 -25.84375 C 47.398438 -19.019531 45.457031 -13.164062 41.21875 -8.28125 C 36.976562 -3.40625 31.523438 -0.789062 24.859375 -0.4375 C 18.035156 -0.0820312 12.289062 -2.097656 7.625 -6.484375 C 2.957031 -10.867188 0.441406 -16.507812 0.078125 -23.40625 Z M 11.5625 -24 C 11.695312 -21.539062 12.191406 -19.328125 13.046875 -17.359375 C 13.898438 -15.390625 15.304688 -13.753906 17.265625 -12.453125 C 19.222656 -11.160156 21.578125 -10.582031 24.328125 -10.71875 C 28.273438 -10.925781 31.1875 -12.4375 33.0625 -15.25 C 34.945312 -18.0625 35.785156 -21.394531 35.578125 -25.25 C 35.378906 -29.050781 34.179688 -32.265625 31.984375 -34.890625 C 29.785156 -37.523438 26.75 -38.738281 22.875 -38.53125 C 19.03125 -38.332031 16.132812 -36.8125 14.1875 -33.96875 C 12.238281 -31.125 11.363281 -27.800781 11.5625 -24 Z M 11.5625 -24 "/></g></g></g><g fill="#ffffff" fill-opacity="1"><g transform="translate(106.44901, 68.134074)"><g><path d="M 18.09375 -48.53125 C 20.625 -48.664062 23.113281 -48.425781 25.5625 -47.8125 C 28.019531 -47.207031 29.847656 -46.578125 31.046875 -45.921875 L 32.8125 -44.875 L 28.9375 -36.1875 C 28.59375 -36.394531 28.109375 -36.660156 27.484375 -36.984375 C 26.867188 -37.304688 25.710938 -37.726562 24.015625 -38.25 C 22.328125 -38.769531 20.765625 -38.992188 19.328125 -38.921875 C 17.554688 -38.828125 16.210938 -38.375 15.296875 -37.5625 C 14.390625 -36.757812 13.96875 -35.71875 14.03125 -34.4375 C 14.0625 -33.800781 14.316406 -33.21875 14.796875 -32.6875 C 15.273438 -32.164062 16.078125 -31.625 17.203125 -31.0625 C 18.328125 -30.5 19.3125 -30.050781 20.15625 -29.71875 C 21.007812 -29.394531 22.328125 -28.898438 24.109375 -28.234375 C 27.171875 -27.109375 29.828125 -25.492188 32.078125 -23.390625 C 34.328125 -21.296875 35.523438 -18.859375 35.671875 -16.078125 C 35.804688 -13.398438 35.441406 -11.035156 34.578125 -8.984375 C 33.722656 -6.941406 32.484375 -5.3125 30.859375 -4.09375 C 29.242188 -2.882812 27.429688 -1.953125 25.421875 -1.296875 C 23.421875 -0.640625 21.234375 -0.253906 18.859375 -0.140625 C 16.835938 -0.0234375 14.832031 -0.125 12.84375 -0.4375 C 10.863281 -0.75 9.191406 -1.179688 7.828125 -1.734375 C 6.472656 -2.296875 5.253906 -2.847656 4.171875 -3.390625 C 3.085938 -3.941406 2.289062 -4.414062 1.78125 -4.8125 L 1.015625 -5.375 L 5.875 -14.59375 C 6.34375 -14.238281 6.984375 -13.785156 7.796875 -13.234375 C 8.617188 -12.691406 10.066406 -11.984375 12.140625 -11.109375 C 14.210938 -10.234375 16.015625 -9.835938 17.546875 -9.921875 C 22.035156 -10.148438 24.203125 -11.789062 24.046875 -14.84375 C 24.015625 -15.488281 23.820312 -16.078125 23.46875 -16.609375 C 23.125 -17.140625 22.53125 -17.65625 21.6875 -18.15625 C 20.851562 -18.65625 20.117188 -19.050781 19.484375 -19.34375 C 18.847656 -19.632812 17.804688 -20.070312 16.359375 -20.65625 C 14.910156 -21.238281 13.835938 -21.679688 13.140625 -21.984375 C 10.234375 -23.234375 7.957031 -24.863281 6.3125 -26.875 C 4.664062 -28.882812 3.78125 -31.097656 3.65625 -33.515625 C 3.4375 -37.703125 4.800781 -41.203125 7.75 -44.015625 C 10.695312 -46.828125 14.144531 -48.332031 18.09375 -48.53125 Z M 18.09375 -48.53125 "/></g></g></g></g></g></svg>